<svg width="306" height="246" viewBox="0 0 306 246" fill="none" xmlns="http://www.w3.org/2000/svg">
<rect width="304.963" height="244.671" transform="translate(0.370117 0.473145)" fill="#FFFDFD"/>
<path fill-rule="evenodd" clip-rule="evenodd" d="M77.2209 164.403H188.227C188.855 164.403 189.468 164.335 190.057 164.206C190.647 164.335 191.259 164.403 191.887 164.403H255.319C260.035 164.403 263.858 160.569 263.858 155.84C263.858 151.11 260.035 147.276 255.319 147.276H248C243.284 147.276 239.461 143.442 239.461 138.713C239.461 133.983 243.284 130.149 248 130.149H271.177C275.893 130.149 279.716 126.315 279.716 121.586C279.716 116.856 275.893 113.022 271.177 113.022H244.341C249.056 113.022 252.88 109.188 252.88 104.459C252.88 99.7291 249.056 95.8951 244.341 95.8951H166.27C170.986 95.8951 174.809 92.0611 174.809 87.3316C174.809 82.6021 170.986 78.7681 166.27 78.7681H96.7385C92.0225 78.7681 88.1995 82.6021 88.1995 87.3316C88.1995 92.0611 92.0225 95.8951 96.7385 95.8951H47.9444C43.2285 95.8951 39.4054 99.7291 39.4054 104.459C39.4054 109.188 43.2285 113.022 47.9444 113.022H78.4407C83.1566 113.022 86.9797 116.856 86.9797 121.586C86.9797 126.315 83.1566 130.149 78.4407 130.149H29.6466C24.9307 130.149 21.1077 133.983 21.1077 138.713C21.1077 143.442 24.9307 147.276 29.6466 147.276H77.2209C72.5049 147.276 68.6819 151.11 68.6819 155.84C68.6819 160.569 72.5049 164.403 77.2209 164.403ZM276.057 164.403C280.773 164.403 284.596 160.569 284.596 155.84C284.596 151.11 280.773 147.276 276.057 147.276C271.341 147.276 267.518 151.11 267.518 155.84C267.518 160.569 271.341 164.403 276.057 164.403Z" fill="#1F64E7" fill-opacity="0.1"/>
<path fill-rule="evenodd" clip-rule="evenodd" d="M138.358 137.864C138.263 138.541 138.214 139.233 138.214 139.936C138.214 148.044 144.767 154.616 152.852 154.616C160.936 154.616 167.49 148.044 167.49 139.936C167.49 139.233 167.441 138.541 167.345 137.864H202.866V170.52C202.866 172.547 201.227 174.19 199.206 174.19H106.497C104.476 174.19 102.838 172.547 102.838 170.52V137.864H138.358Z" fill="#F5F5F5"/>
<path fill-rule="evenodd" clip-rule="evenodd" d="M168.71 137.489C168.71 146.272 161.61 153.393 152.852 153.393C144.094 153.393 136.994 146.272 136.994 137.489C136.994 137.204 137.001 136.922 137.016 136.641H102.838L114.5 102.059C115.003 100.568 116.398 99.5649 117.967 99.5649H187.737C189.306 99.5649 190.701 100.568 191.203 102.059L202.866 136.641H168.688C168.702 136.922 168.71 137.204 168.71 137.489Z" fill="#F6F6F6"/>
<path fill-rule="evenodd" clip-rule="evenodd" d="M166.389 138.657C166.389 145.444 160.328 152.169 152.852 152.169C145.375 152.169 139.314 145.444 139.314 138.657C139.314 138.437 139.321 136.995 139.333 136.778H113.816L123.772 112.503C124.201 111.351 125.392 110.575 126.731 110.575H178.972C180.312 110.575 181.502 111.351 181.931 112.503L191.887 136.778H166.37C166.383 136.995 166.389 138.437 166.389 138.657Z" fill="#DFE6F3"/>
<path fill-rule="evenodd" clip-rule="evenodd" d="M104.363 136.892V169.296C104.363 170.479 105.319 171.437 106.498 171.437H199.206C200.385 171.437 201.341 170.479 201.341 169.296V136.892L189.759 102.549C189.466 101.68 188.652 101.094 187.737 101.094H117.967C117.052 101.094 116.238 101.68 115.945 102.549L104.363 136.892Z" stroke="#0560FA" stroke-opacity="0.6" stroke-width="2.5"/>
<path d="M110.857 136.266H113.816M119.916 136.266C124.718 136.266 129.9 136.266 135.463 136.266C137.751 136.266 137.751 137.879 137.751 138.712C137.751 146.82 144.456 153.393 152.726 153.393C160.997 153.393 167.701 146.82 167.701 138.712C167.701 137.879 167.701 136.266 169.99 136.266H200.426" stroke="#1F64E7" stroke-opacity="0.6" stroke-width="2.5" stroke-linecap="round" stroke-linejoin="round"/>
<path d="M151.753 66.5342V87.0326M119.916 71.798L133.456 87.0326M183.47 71.798L169.93 87.0326" stroke="#0560FA" stroke-opacity="0.6" stroke-width="2.5" stroke-linecap="round" stroke-linejoin="round"/>
</svg>
