<svg width="25" height="17" viewBox="0 0 25 17" fill="none" xmlns="http://www.w3.org/2000/svg">
<path d="M4.42969 4C5.25811 4 5.92969 3.32843 5.92969 2.5C5.92969 1.67157 5.25811 1 4.42969 1C3.60126 1 2.92969 1.67157 2.92969 2.5C2.92969 3.32843 3.60126 4 4.42969 4Z" stroke="#FFF9F9" stroke-miterlimit="10" stroke-linejoin="round"/>
<path d="M5.92969 2.5H24.6797" stroke="#FFF9F9" stroke-miterlimit="10" stroke-linejoin="round"/>
<path d="M4.42969 16C5.25811 16 5.92969 15.3284 5.92969 14.5C5.92969 13.6716 5.25811 13 4.42969 13C3.60126 13 2.92969 13.6716 2.92969 14.5C2.92969 15.3284 3.60126 16 4.42969 16Z" stroke="#FFF9F9" stroke-miterlimit="10" stroke-linejoin="round"/>
<path d="M5.92969 14.5H24.6797" stroke="#FFF9F9" stroke-miterlimit="10" stroke-linejoin="round"/>
<path d="M20.9297 10C21.7581 10 22.4297 9.32843 22.4297 8.5C22.4297 7.67157 21.7581 7 20.9297 7C20.1013 7 19.4297 7.67157 19.4297 8.5C19.4297 9.32843 20.1013 10 20.9297 10Z" stroke="#FFF9F9" stroke-miterlimit="10" stroke-linejoin="round"/>
<path d="M19.4297 8.5H0.679688" stroke="#FFF9F9" stroke-miterlimit="10" stroke-linejoin="round"/>
<path d="M2.92969 2.5H0.679688" stroke="#FFF9F9" stroke-miterlimit="10" stroke-linejoin="round"/>
<path d="M22.4297 8.5H24.6797" stroke="#FFF9F9" stroke-miterlimit="10" stroke-linejoin="round"/>
<path d="M2.92969 14.5H0.679688" stroke="#FFF9F9" stroke-miterlimit="10" stroke-linejoin="round"/>
</svg>
