<svg width="31" height="30" viewBox="0 0 31 30" fill="none" xmlns="http://www.w3.org/2000/svg">
<circle opacity="0.1" cx="15.0664" cy="15" r="15" fill="#0560FA"/>
<path fill-rule="evenodd" clip-rule="evenodd" d="M15.0651 8.3335C12.4851 8.3335 10.3984 10.4202 10.3984 13.0002C10.3984 15.7802 13.3451 19.6135 14.5584 21.0735C14.8251 21.3935 15.3118 21.3935 15.5784 21.0735C16.7851 19.6135 19.7318 15.7802 19.7318 13.0002C19.7318 10.4202 17.6451 8.3335 15.0651 8.3335ZM11.7324 13.0001C11.7324 11.1601 13.2258 9.66675 15.0658 9.66675C16.9058 9.66675 18.3991 11.1601 18.3991 13.0001C18.3991 14.9201 16.4791 17.7934 15.0658 19.5867C13.6791 17.8067 11.7324 14.9001 11.7324 13.0001ZM13.3984 13.0002C13.3984 13.9202 14.1451 14.6668 15.0651 14.6668C15.9851 14.6668 16.7318 13.9202 16.7318 13.0002C16.7318 12.0802 15.9851 11.3335 15.0651 11.3335C14.1451 11.3335 13.3984 12.0802 13.3984 13.0002Z" fill="#0560FA"/>
</svg>
