<svg width="19" height="18" viewBox="0 0 19 18" fill="none" xmlns="http://www.w3.org/2000/svg">
<path d="M18.3705 16.2977L15.0203 13.0912C17.6361 9.86211 17.3609 5.26331 14.3542 2.36596C12.771 0.840459 10.6588 0 8.41065 0C6.16139 0 4.05019 0.840503 2.46712 2.36596C0.883948 3.89146 0.0117188 5.92673 0.0117188 8.093C0.0117188 10.2603 0.883994 12.2946 2.46712 13.82C4.05028 15.3455 6.16249 16.186 8.41065 16.186C10.2699 16.186 12.106 15.5891 13.5744 14.4609L16.9021 17.7123C17.1083 17.911 17.3611 18 17.6363 18C17.9115 18 18.1643 17.8894 18.3705 17.7123C18.7838 17.3366 18.7838 16.6956 18.3705 16.2974L18.3705 16.2977ZM14.7451 8.093C14.7451 9.72907 14.0799 11.2555 12.8858 12.4052C11.6926 13.5549 10.0861 14.1968 8.41058 14.1968C6.73502 14.1968 5.12853 13.5558 3.93537 12.4052C2.74217 11.2555 2.07607 9.70753 2.07607 8.093C2.07607 6.45693 2.74125 4.9305 3.93537 3.7808C5.12858 2.63106 6.73502 1.98923 8.41058 1.98923C10.1085 1.98923 11.6926 2.63018 12.8858 3.7808C14.079 4.93141 14.7451 6.45702 14.7451 8.093Z" fill="#8D8D8D"/>
</svg>
